# xmcd
#
# Track frame offsets: 
#        150
#        12426
#        24442
#        37557
#        47756
#        64346
#        80208
#
# Disc length: 1264 seconds
#
# Revision: 0
# Processed by: cddbd v1.5.2PL0 Copyright (c) Steve Scherf et al.
# Submitted via: ExactAudioCopy v1.0b3
#
DISCID=5004ee07
DTITLE=Birgit Flaucher - Second hand tracks
DYEAR=1999
DGENRE=Ballad
TTITLE0=Help yourself
TTITLE1=Words of love
TTITLE2=Down to zero
TTITLE3=It´s too late
TTITLE4=Diamands and rust
TTITLE5=You´ve got a friend
TTITLE6=Tall in a saddle
EXTD=
EXTT0=
EXTT1=
EXTT2=
EXTT3=
EXTT4=
EXTT5=
EXTT6=
PLAYORDER=
